<?xml version="1.0" standalone="no"?>
<!DOCTYPE svg PUBLIC "-//W3C//DTD SVG 20010904//EN"
 "http://www.w3.org/TR/2001/REC-SVG-20010904/DTD/svg10.dtd">
<svg version="1.0" xmlns="http://www.w3.org/2000/svg"
 width="117.000000pt" height="106.000000pt" viewBox="0 0 117.000000 106.000000"
 preserveAspectRatio="xMidYMid meet">

<g transform="translate(0.000000,106.000000) scale(0.100000,-0.100000)"
fill="#000000" stroke="none">
<path d="M520 852 c-45 -22 -75 -79 -66 -127 9 -47 66 -95 112 -95 78 0 131
58 121 132 -6 46 -29 75 -74 94 -42 18 -51 18 -93 -4z"/>
<path d="M233 566 c10 -140 55 -235 141 -298 39 -28 39 -28 197 -28 l157 0 44
33 c49 37 102 111 119 165 6 20 13 76 16 125 l5 87 -25 0 c-41 0 -128 -37
-171 -72 -35 -29 -96 -111 -96 -130 0 -4 53 -9 118 -10 l117 -3 -55 -56 c-73
-75 -145 -103 -247 -97 -91 6 -167 42 -224 106 l-41 47 132 3 c130 3 131 3
124 25 -29 95 -165 187 -276 187 l-41 0 6 -84z"/>
</g>
</svg>
